<?xml version="1.0" encoding="UTF-8" standalone="no"?>
<!-- Generator: Adobe Illustrator 23.0.1, SVG Export Plug-In . SVG Version: 6.00 Build 0)  -->

<svg
   xmlns:dc="http://purl.org/dc/elements/1.1/"
   xmlns:cc="http://creativecommons.org/ns#"
   xmlns:rdf="http://www.w3.org/1999/02/22-rdf-syntax-ns#"
   xmlns:svg="http://www.w3.org/2000/svg"
   xmlns="http://www.w3.org/2000/svg"
   xmlns:xlink="http://www.w3.org/1999/xlink"
   xmlns:sodipodi="http://sodipodi.sourceforge.net/DTD/sodipodi-0.dtd"
   xmlns:inkscape="http://www.inkscape.org/namespaces/inkscape"
   version="1.1"
   id="Capa_1"
   x="0px"
   y="0px"
   viewBox="0 0 87.5 69.6"
   style="enable-background:new 0 0 87.5 69.6;"
   xml:space="preserve"
   sodipodi:docname="gonow.svg"
   inkscape:version="0.92.4 (5da689c313, 2019-01-14)"><metadata
   id="metadata41"><rdf:RDF><cc:Work
       rdf:about=""><dc:format>image/svg+xml</dc:format><dc:type
         rdf:resource="http://purl.org/dc/dcmitype/StillImage" /><dc:title></dc:title></cc:Work></rdf:RDF></metadata><defs
   id="defs39" /><sodipodi:namedview
   pagecolor="#ffffff"
   bordercolor="#666666"
   borderopacity="1"
   objecttolerance="10"
   gridtolerance="10"
   guidetolerance="10"
   inkscape:pageopacity="0"
   inkscape:pageshadow="2"
   inkscape:window-width="1440"
   inkscape:window-height="837"
   id="namedview37"
   showgrid="false"
   inkscape:zoom="3.3908047"
   inkscape:cx="2.6093229"
   inkscape:cy="34.799999"
   inkscape:window-x="-8"
   inkscape:window-y="-8"
   inkscape:window-maximized="1"
   inkscape:current-layer="Capa_1" />
<style
   type="text/css"
   id="style2">
	.st0{fill:#1F57A6;}
	.st1{clip-path:url(#SVGID_2_);fill:#DA202B;}
	.st2{clip-path:url(#SVGID_2_);fill:#1F57A6;}
	.st3{fill:#6FB8E6;}
</style>
<path
   class="st0"
   d="M30.4,16.6c-1.7,0-3.2,1.1-3.7,2.6h0c-2.5-2.3-6-3.6-10-3.6c-10.2,0-16.7,8-16.7,19c0,3.3,0.6,6.4,1.8,9.1  c2.6,6,7.8,9.9,14.7,9.9c3.7,0,6.8-1,9.3-2.9v2.1c0.1,5.1-3.5,7.7-8.5,7.7c-1.8,0-3.5-0.5-4.9-1.5c-1.7-1.2-3.9-1.4-5.8-0.5  l-3.7,1.8c2.9,4.9,8.3,7.8,14.3,7.8c8.1,0,14.4-3.2,16.1-10.2c0.3-1.6,0.5-3.2,0.5-5.1V16.6H30.4z M17.6,46.3  c-4.6,0-7.3-2.8-8.5-6.8c-0.4-1.5-0.7-3.2-0.7-5c0-6.5,2.9-11.8,9.4-11.8c5.5,0,8.2,3.9,8.6,9.7c0,0.6,0.1,1.3,0.1,2  C26.6,41.6,24.1,46.3,17.6,46.3z"
   id="path4" />
<path
   class="st0"
   d="M69.1,33.3c-0.1-2.1-0.5-4.2-1.1-6c-0.2-0.7-0.5-1.3-0.8-1.9c-2.8-6-8.5-9.7-16-9.7c-9.3,0-16,5.9-17.6,14.9  c0,0,0,0,0,0.1v0c-0.2,1.3-0.3,2.6-0.3,4c0,1.4,0.1,2.8,0.3,4.1c1.5,8.9,8.1,14.9,17.6,14.9c10.7,0,17.9-7.8,17.9-19  C69.1,34.1,69.1,33.7,69.1,33.3z M51.2,46c-6.2,0-9.4-4.5-9.4-11.4c0-2.2,0.3-4.2,1-5.9c1.3-3.5,4.1-5.6,8.4-5.6  c3.6,0,6.2,1.5,7.7,4.1c1.1,1.9,1.7,4.4,1.7,7.4C60.7,41.3,57.5,46,51.2,46z"
   id="path6" />
<path
   class="st0"
   d="M76,0c-6.5,0-11.5,4.7-11.5,10.9c0,2.3,1.1,7.8,2.6,14.4c0.1,0.6,0.3,1.3,0.4,1.9c0.5,2,0.9,4,1.5,6  c1.7,6.9,3.6,14,4.9,19.1c0.5,1.9,3.5,1.9,4,0c1.6-6.1,4-15.1,6-23.3c2-8.1,3.5-15.4,3.5-18.1C87.5,4.7,82.6,0,76,0z M76,3.7  c4.5,0,7.4,3,7.4,7.3c0,4.3-3,7.3-7.4,7.3c-4.5,0-7.4-3-7.4-7.3C68.6,6.6,71.6,3.7,76,3.7z"
   id="path8" />
<g
   id="g16">
	<path
   class="st0"
   d="M42.2,61.5c0-1.8-1-2.5-2.6-2.5c-2.4,0-3.5,1.3-3.5,3.4v5h-1.2v-9.2h1.2V60h0c0.4-1,1.7-2.1,3.6-2.1   c2.9,0,3.7,1.6,3.7,3.8v5.7h-1.2V61.5z"
   id="path10" />
	<path
   class="st0"
   d="M49.1,57.9c3.3,0,4.9,2.3,4.9,4.9c0,2.6-1.6,4.9-4.9,4.9c-3.3,0-4.9-2.3-4.9-4.9   C44.2,60.2,45.8,57.9,49.1,57.9z M49.1,66.6c2.3,0,3.7-1.6,3.7-3.8c0-2.2-1.3-3.8-3.7-3.8s-3.7,1.6-3.7,3.8   C45.5,65,46.8,66.6,49.1,66.6z"
   id="path12" />
	<path
   class="st0"
   d="M67.2,58.2h1.3l-3.5,9.2h-1.3L61.1,60l-2.6,7.4h-1.3l-3.4-9.2h1.3l2.7,7.6l2.6-7.6h1.3l2.7,7.5L67.2,58.2z"
   id="path14" />
</g>
<g
   id="g32">
	<g
   id="g30">
		<defs
   id="defs19">
			<circle
   id="SVGID_1_"
   cx="76"
   cy="62.8"
   r="5.2" />
		</defs>
		<clipPath
   id="SVGID_2_">
			<use
   xlink:href="#SVGID_1_"
   style="overflow:visible;"
   id="use21" />
		</clipPath>
		<rect
   x="70.7"
   y="61"
   class="st1"
   width="10.7"
   height="3.6"
   clip-path="url(#SVGID_2_)"
   id="rect24" />
		<rect
   x="70.7"
   y="55.9"
   class="st2"
   width="10.7"
   height="3.6"
   clip-path="url(#SVGID_2_)"
   id="rect26" />
		<rect
   x="70.7"
   y="66.1"
   class="st2"
   width="10.7"
   height="3.6"
   clip-path="url(#SVGID_2_)"
   id="rect28" />
	</g>
</g>
<path
   class="st3"
   d="M76,0c-6.5,0-11.5,4.7-11.5,10.9c0,2.3,1.1,7.8,2.6,14.4c-2.8-6-8.5-9.7-16-9.7c-9.3,0-16,5.9-17.6,14.9V16.6  h-3.2c-1.7,0-3.2,1.1-3.7,2.6h0c-2.5-2.3-6-3.6-10-3.6c-10.2,0-16.7,8-16.7,19c0,3.3,0.6,6.4,1.8,9.1c2.1-1.3,4.6-2.7,7.4-4.1  c-0.4-1.5-0.7-3.2-0.7-5c0-6.5,2.9-11.8,9.4-11.8c5.5,0,8.2,3.9,8.6,9.7c2.3-0.7,4.7-1.4,7.1-2h0c2.9-0.7,6-1.3,9.1-1.9  c1.3-3.5,4.1-5.6,8.4-5.6c3.6,0,6.2,1.5,7.7,4.1c2.8-0.1,5.7-0.1,8.7,0.1c0.1,0,0.2,0,0.3,0c5.1,0.3,10.5,0.8,16,1.8  c2-8.1,3.5-15.4,3.5-18.1C87.5,4.7,82.6,0,76,0z M76,18.2c-4.5,0-7.4-3-7.4-7.3c0-4.3,3-7.3,7.4-7.3c4.5,0,7.4,3,7.4,7.3  C83.4,15.2,80.4,18.2,76,18.2z"
   id="path34" />
</svg>