<?xml version="1.0" encoding="utf-8"?>
<!-- Generator: Adobe Illustrator 23.0.1, SVG Export Plug-In . SVG Version: 6.00 Build 0)  -->
<svg version="1.1" id="Capa_1" xmlns="http://www.w3.org/2000/svg" xmlns:xlink="http://www.w3.org/1999/xlink" x="0px" y="0px"
	 viewBox="0 0 60.9 48.4" style="enable-background:new 0 0 60.9 48.4;" xml:space="preserve">
<style type="text/css">
	.st0{fill:#1F57A6;}
	.st1{clip-path:url(#SVGID_2_);fill:#DA202B;}
	.st2{clip-path:url(#SVGID_2_);fill:#1F57A6;}
</style>
<path class="st0" d="M21.1,11.5c-1.2,0-2.2,0.8-2.6,1.8l0,0c-1.8-1.6-4.1-2.5-7-2.5C4.5,10.8,0,16.4,0,24c0,7.5,4.5,13.2,11.4,13.2
	c2.6,0,4.7-0.7,6.4-2v1.4c0,3.6-2.4,5.4-5.9,5.4c-1.2,0-2.5-0.3-3.4-1c-1.2-0.8-2.7-1-4-0.3l-2.6,1.3c2,3.4,5.8,5.4,9.9,5.4
	c5.6,0,10-2.2,11.2-7.1c0.2-1.1,0.3-2.2,0.3-3.5V11.5H21.1z M12.2,32.2c-4.3,0-6.3-3.6-6.3-8.2c0-4.5,2-8.2,6.5-8.2
	c4.2,0,6.1,3.3,6.1,8.2C18.5,28.9,16.7,32.2,12.2,32.2z"/>
<path class="st0" d="M23.3,24c0-7.8,5-13.2,12.4-13.2c7.5,0,12.4,5.5,12.4,13.2c0,7.8-5,13.2-12.4,13.2C28.2,37.2,23.3,31.7,23.3,24
	z M42.3,24c0-4.9-2.2-7.9-6.6-7.9c-4.5,0-6.5,3.2-6.5,7.9c0,4.9,2.2,7.9,6.5,7.9C40.1,32,42.3,28.7,42.3,24z"/>
<path class="st0" d="M52.9,0c-4.5,0-8,3.3-8,7.6c0,3.7,4.3,20.2,6.6,28.8c0.4,1.3,2.4,1.3,2.8,0c2.3-8.5,6.6-25,6.6-28.8
	C60.9,3.3,57.5,0,52.9,0z M52.9,12.6c-3.1,0-5.1-2.1-5.1-5c0-3,2.1-5,5.1-5c3.1,0,5.1,2.1,5.1,5C58.1,10.5,56,12.6,52.9,12.6z"/>
<g>
	<path class="st0" d="M29.5,42.7c0-1.3-0.7-1.7-1.8-1.7c-1.7,0-2.4,0.9-2.4,2.4v3.5h-0.9v-6.4h0.9v1.3h0c0.3-0.7,1.2-1.5,2.5-1.5
		c2,0,2.6,1.1,2.6,2.6v4h-0.9V42.7z"/>
	<path class="st0" d="M34.3,40.2c2.3,0,3.4,1.6,3.4,3.4c0,1.8-1.1,3.4-3.4,3.4c-2.3,0-3.4-1.6-3.4-3.4C30.9,41.8,32,40.2,34.3,40.2z
		 M34.3,46.3c1.6,0,2.5-1.1,2.5-2.6S35.9,41,34.3,41s-2.5,1.1-2.5,2.6S32.7,46.3,34.3,46.3z"/>
	<path class="st0" d="M46.8,40.4h0.9l-2.4,6.4h-0.9l-1.8-5.1l-1.8,5.1h-0.9l-2.4-6.4h0.9l1.9,5.3l1.8-5.3h0.9l1.8,5.2L46.8,40.4z"/>
</g>
<g>
	<g>
		<defs>
			<circle id="SVGID_1_" cx="52.9" cy="43.6" r="3.6"/>
		</defs>
		<clipPath id="SVGID_2_">
			<use xlink:href="#SVGID_1_"  style="overflow:visible;"/>
		</clipPath>
		<rect x="49.2" y="42.3" class="st1" width="7.4" height="2.5"/>
		<rect x="49.2" y="38.8" class="st2" width="7.4" height="2.5"/>
		<rect x="49.2" y="45.9" class="st2" width="7.4" height="2.5"/>
	</g>
</g>
</svg>
