<?xml version="1.0" encoding="utf-8"?>
<!-- Generator: Adobe Illustrator 23.0.1, SVG Export Plug-In . SVG Version: 6.00 Build 0)  -->
<svg version="1.1" id="Capa_1" xmlns="http://www.w3.org/2000/svg" xmlns:xlink="http://www.w3.org/1999/xlink" x="0px" y="0px"
	 viewBox="0 0 253.8 206.5" style="enable-background:new 0 0 253.8 206.5;" xml:space="preserve">
<style type="text/css">
	.st0{fill:#1F57A6;}
	.st1{clip-path:url(#SVGID_2_);fill:#DA202B;}
	.st2{clip-path:url(#SVGID_2_);fill:#1F57A6;}
</style>
<path class="st0" d="M88.1,48.1c-5,0-9.2,3.2-10.8,7.6l0,0c-7.3-6.5-17.2-10.5-29-10.5C18.9,45.2,0,68.5,0,100
	c0,31.2,18.7,54.9,47.5,54.9c10.8,0,19.6-2.9,26.8-8.3v6c0.2,14.8-10.2,22.3-24.6,22.3c-5.2,0-10.3-1.4-14.2-4.2
	c-4.9-3.5-11.3-4-16.6-1.4l-10.7,5.3c8.3,14.1,24.1,22.5,41.4,22.5c23.5,0,41.8-9.2,46.6-29.4c1-4.6,1.3-9.2,1.3-14.6V48.1H88.1z
	 M51,134.1c-18.1,0-26.4-15-26.4-34.1c0-18.9,8.5-34.1,27.1-34.1C69.5,66,77,79.8,77,100C77,120.2,69.7,134.1,51,134.1z"/>
<path class="st0" d="M97.1,100c0-32.5,21-54.9,51.8-54.9c31.2,0,51.8,22.7,51.8,54.9c0,32.3-20.8,54.9-51.8,54.9
	C117.5,154.9,97.1,132.2,97.1,100z M176.2,100c0-20.2-9.2-33.1-27.3-33.1c-18.7,0-27.1,13.5-27.1,33.1c0,20.2,9.2,33.1,27.1,33.1
	C167.1,133.1,176.2,119.5,176.2,100z"/>
<path class="st0" d="M220.6,0c-19,0-33.3,13.6-33.3,31.6c0,15.6,17.9,84.4,27.5,119.8c1.5,5.6,10.1,5.6,11.6,0
	c9.5-35.5,27.5-104.2,27.5-119.8C253.8,13.6,239.5,0,220.6,0z M220.6,52.5c-13,0-21.4-8.7-21.4-21c0-12.5,8.7-21,21.4-21
	c12.9,0,21.4,8.7,21.4,21C242,43.9,233.4,52.5,220.6,52.5z"/>
<g>
	<path class="st0" d="M122.9,177.9c0-5.3-3-7.2-7.5-7.2c-7,0-10.1,3.8-10.1,9.9v14.5h-3.5v-26.8h3.5v5.2h0.1
		c1.1-2.8,4.8-6.1,10.3-6.1c8.3,0,10.8,4.6,10.8,11v16.6h-3.5V177.9z"/>
	<path class="st0" d="M142.8,167.6c9.6,0,14.1,6.7,14.1,14.2c0,7.5-4.6,14.2-14.1,14.2c-9.6,0-14.1-6.7-14.1-14.2
		C128.6,174.3,133.2,167.6,142.8,167.6z M142.8,192.8c6.7,0,10.6-4.6,10.6-11s-3.9-11-10.6-11s-10.6,4.6-10.6,11
		S136.1,192.8,142.8,192.8z"/>
	<path class="st0" d="M195.2,168.4h3.8l-10.1,26.8h-3.8l-7.5-21.4l-7.4,21.4h-3.8l-9.9-26.8h3.8l7.9,21.9l7.5-21.9h3.8l7.7,21.8
		L195.2,168.4z"/>
</g>
<g>
	<g>
		<defs>
			<circle id="SVGID_1_" cx="220.6" cy="181.6" r="15"/>
		</defs>
		<clipPath id="SVGID_2_">
			<use xlink:href="#SVGID_1_"  style="overflow:visible;"/>
		</clipPath>
		<rect x="205.2" y="176.4" class="st1" width="30.9" height="10.4"/>
		<rect x="205.2" y="161.7" class="st2" width="30.9" height="10.4"/>
		<rect x="205.2" y="191.1" class="st2" width="30.9" height="10.4"/>
	</g>
</g>
</svg>
