<?xml version="1.0" encoding="utf-8"?>
<!-- Generator: Adobe Illustrator 23.0.1, SVG Export Plug-In . SVG Version: 6.00 Build 0)  -->
<svg version="1.1" id="Capa_1" xmlns="http://www.w3.org/2000/svg" xmlns:xlink="http://www.w3.org/1999/xlink" x="0px" y="0px"
	 viewBox="0 0 1338.27 1338.27" style="enable-background:new 0 0 1338.27 1338.27;" xml:space="preserve">
<rect style="fill:#FFFFFF;" width="1338.27" height="1338.27"/>
<path style="fill:#ED1C2B;" d="M296.19,471.23c-3.7-1.18-7.29-2.62-10.69-4.22l145.88-211.08l237.66,164.29
	c-2.29-1.16-4.59-2.23-6.89-3.21c-31.91-13.72-64.95-18.87-99.37-13.55c-27.99,4.35-54.2,13.96-79.27,27.02
	c-12.07,6.17-24.22,12.33-36.6,17.95c-30.7,13.84-62.22,24.7-96.02,27.78C332.37,477.88,314.07,477.1,296.19,471.23z"/>
<path style="fill:#ED1C2B;" d="M747.37,474.35c-25.32-17.5-97.12,44.46-97.12,44.46c-13.28,13.58-24.24,28.84-34.95,44.39
	c-8.52,12.47-16.87,25.03-25.8,37.2c-12.13,16.67-27.17,30.1-46.3,38.44c-1.55,0.66-3.11,1.33-4.66,1.91
	c-0.36,0.15-0.79,0.03-1.77,0.04c0.17-0.96,0.25-1.93,0.58-2.69c10.99-25.6,13.36-52.6,13.47-79.96
	c0.05-23.48,0.99-46.89,6.39-69.94c2.85-12.3,6.73-24.17,12.67-35.34c6.64-12.18,15.41-22.32,28.22-29.93
	c-3.84-1.64-7.15-1.2-10.25-1.01c-30.52,1.75-59.2,10.37-86.67,23.5c-16.63,7.92-33.03,16.39-49.87,23.76
	c-28.21,12.45-57.34,22.18-87.99,26.66c-19.39,2.84-38.86,3.38-58.16-0.31c-11.47-2.26-22.2-5.95-31.87-10.8l-73.44,106.25
	l342.37,236.65H15.05v19.87h555.91l28.74,19.86H199.85v19.87h428.59l42.71,29.52L902.68,581.7L747.37,474.35z M526.72,623.28
	c-2.74,7.64-7.98,13.39-15.55,16.4c-6.75,2.71-13.73,4.88-20.71,7.14c-8.71,2.91-17.64,5.28-26.28,8.37
	c-27.64,9.76-50.56,26.71-70.54,47.77c-3.58,3.77-7.06,7.55-10.64,11.32c-0.34-0.11-0.68-0.32-1.02-0.43
	c0.92-3.72,1.67-7.55,2.67-11.18c7.58-26.93,20.3-50.88,41.18-69.93c17.16-15.64,37.42-25.92,59.37-33.05
	c15.5-5.01,31.41-8.48,47.41-10.8c0.39,0.56,0.8,0.94,0.77,1.3C532.29,601.4,530.42,612.55,526.72,623.28z"/>
<path style="fill:#ED1C2B;" d="M231.9,388.84c-0.43-7.72,0.55-15.49,0.83-23.24c0.29-5.8-2.53-10.09-7.64-11.39
	c-6.76-1.61-12.62,2.15-13.32,9.6c-0.79,8.68-1.51,17.54-1.07,26.22c2.32,39.92,25.52,75.97,62.58,94.7l12.21-17.73
	C254.6,452.75,234.19,423.64,231.9,388.84z M1063.51,274.72c-7.16-0.94-13.98-1.75-20.79-2.75c-13.96-2.02-27.43-5.76-40.16-12.09
	c-13.58-6.67-25.12-15.73-32.39-29.47c-0.23-0.46-0.91-0.69-1.83-1.38c-10.12,20.19-13.17,40.34-1.33,61.96
	c-11.51-5-14.72-14.44-18.03-23.71c-1.32-0.02-2.29-0.1-3.35-0.1c-18.27,0.99-35.92,5.2-53.33,10.85
	c-33.92,11.1-65.76,26.97-97.39,43.47c-0.74,0.38-1.24,1.14-2.76,2.51c63.55,12.14,117.65,40.64,164.4,83.55
	C965,397.12,972.6,387.32,980.6,378c8.88-10.4,19.06-19.46,30.78-26.72c14.87-9.12,30.87-13.74,48.49-11.16
	c5.15,0.68,10.16,2.15,15.79,3.4c4.75-6.24,9.6-12.73,14.83-19.54C1077.08,309.82,1068.26,293.39,1063.51,274.72z M1019.23,486.02
	c-12.17-9.91-24.05-20.23-35.25-31.21c-20.53-20.03-40.87-40.32-64.13-57.21c-38.67-28.22-80.16-50.13-127.97-58.25
	c-29-4.92-57.5-3-85.4,6.83c-1.09,0.35-2.11,0.98-3.95,1.89c9.11,3.04,17.38,5.65,25.52,8.61c39.47,14.07,75.12,34.89,107.9,60.68
	c23.97,18.99,47.07,38.97,70.55,58.62c15.46,12.91,30.94,25.65,48.79,35.22c21.4,11.54,43.92,15.75,67.96,11.17
	c13.36-2.53,26.16-6.88,39.86-13.54C1046.34,503.33,1031.82,496.23,1019.23,486.02z M880.78,474.16
	c-15.87-13.3-31.45-26.92-47.71-39.81c-32.11-25.39-66.65-46.82-104.67-62.45c-19.31-7.93-39.16-13.51-60.12-14.24
	c-16.39-0.45-32.07,2.43-46.59,10.52c-2.04,1.16-4.01,2.68-6.71,4.4c5.64,2.31,10.35,4.11,14.86,6.15
	c31.81,13.8,61.36,31.47,90.09,50.58c20.44,13.58,40.4,27.65,60.65,41.39c11.64,7.83,23.77,14.91,37.19,19.27
	c24.26,7.89,45.65,2.12,65.45-13.31C882.25,475.69,881.52,474.83,880.78,474.16z M1221.04,442.83
	c-8.48-6.52-17.45-12.28-27.25-16.69c-17.55-7.87-35.55-9.07-53.78-3.13c-7.89,2.63-15.67,5.97-23.2,9.59
	c-12.49,5.87-24.59,12.48-37,18.54c-15.9,7.71-32.52,13.34-50.03,15.98c-2.5,0.33-4.91,0.66-7.41,0.99
	c10.86,8.74,22.31,15.59,35.24,19.37c5.61,1.6,11.44,2.7,17.24,2.99c10.1,0.64,19.31-2.93,27.85-8.07
	c7.34-4.44,14.52-9.15,21.71-13.95c25.01-16.6,52.71-23.97,82.6-23.39c5.12,0.06,10.24,0.04,16.15,0.08
	C1222.09,443.98,1221.62,443.32,1221.04,442.83z"/>
<path style="fill:#ED1C2B;" d="M285.49,467.01l-12.21,17.73c-37.06-18.73-60.26-54.78-62.58-94.7c-0.44-8.69,0.28-17.55,1.07-26.22
	c0.69-7.45,6.56-11.21,13.32-9.6c5.1,1.3,7.93,5.59,7.64,11.39c-0.28,7.75-1.26,15.52-0.83,23.24
	C234.19,423.64,254.6,452.75,285.49,467.01z"/>
<path style="fill:#ED1C2B;" d="M956.6,407.57c-46.79-42.95-100.93-71.4-164.46-83.52c1.52-1.4,2.08-2.17,2.83-2.56
	c31.57-16.47,63.39-32.37,97.36-43.45c17.36-5.66,35.02-9.84,53.33-10.85c1.02-0.06,2.04,0.02,3.35,0.05
	c3.31,9.34,6.47,18.76,17.96,23.72c-11.79-21.61-8.72-41.72,1.35-61.98c0.97,0.72,1.63,0.96,1.87,1.42
	c7.21,13.78,18.76,22.82,32.39,29.52c12.69,6.24,26.15,10.02,40.1,12.08c6.81,1,13.66,1.78,20.82,2.7
	c4.75,18.69,13.54,35.14,26.96,49.29c-5.17,6.82-10.05,13.27-14.8,19.53c-5.65-1.24-10.68-2.68-15.82-3.42
	c-17.58-2.53-33.61,2.05-48.52,11.21c-11.71,7.2-21.84,16.3-30.73,26.68C972.57,387.35,965.03,397.13,956.6,407.57z"/>
<path style="fill:#ED1C2B;" d="M1063.1,508.83c-13.68,6.68-26.46,11.01-39.86,13.57c-24.03,4.59-46.57,0.32-67.96-11.18
	c-17.83-9.59-33.33-22.37-48.76-35.27c-23.46-19.61-46.58-39.64-70.58-58.56c-32.72-25.8-68.44-46.62-107.84-60.72
	c-8.17-2.92-16.44-5.54-25.56-8.6c1.86-0.9,2.88-1.52,3.98-1.91c27.87-9.83,56.37-11.7,85.41-6.79c47.79,8.07,89.27,30,127.91,58.19
	c23.28,16.98,43.59,37.23,64.14,57.28c11.22,10.95,23.1,21.29,35.26,31.18C1031.81,496.26,1046.3,503.34,1063.1,508.83z"/>
<path style="fill:#ED1C2B;" d="M883.19,476.63c-19.76,15.42-41.16,21.21-65.39,13.34c-13.46-4.37-25.55-11.42-37.18-19.29
	c-20.26-13.72-40.27-27.82-60.64-41.37c-28.75-19.12-58.35-36.79-90.1-50.61c-4.57-1.99-9.22-3.81-14.86-6.13
	c2.67-1.76,4.62-3.21,6.72-4.39c14.46-8.08,30.14-11.03,46.52-10.5c20.98,0.67,40.86,6.31,60.12,14.21
	c38.01,15.58,72.55,37.09,104.68,62.49c16.24,12.84,31.84,26.5,47.71,39.81C881.56,474.84,882.22,475.64,883.19,476.63z"/>
<path style="fill:#ED1C2B;" d="M1022.37,468.13c2.46-0.35,4.93-0.68,7.38-1.05c17.53-2.63,34.13-8.25,50.02-15.95
	c12.43-6.02,24.57-12.63,37.04-18.58c7.53-3.6,15.27-6.92,23.19-9.52c18.26-5.98,36.27-4.77,53.83,3.12
	c9.8,4.4,18.75,10.13,27.21,16.7c0.6,0.47,1.07,1.1,2.17,2.25c-5.93-0.02-11.06,0.04-16.2-0.05c-29.91-0.55-57.56,6.8-82.61,23.41
	c-7.15,4.74-14.34,9.46-21.67,13.91c-8.54,5.19-17.77,8.73-27.91,8.11c-5.78-0.36-11.63-1.42-17.19-3.04
	C1044.67,483.68,1033.22,476.8,1022.37,468.13z"/>
<polygon style="fill:#FFFFFF;" points="173.65,572.95 680.58,923.42 0,909.65 0,611.06 "/>
<g>
	<path d="M345.73,1147.66V879.27H271.9v-41.69h195.86v41.69h-72.53v268.39H345.73z"/>
	<path d="M605.43,965.38v134.04c0,11.03,4.05,16.54,12.16,16.54c3.47,0,6.08-0.58,7.82-1.74v30.77c-8.11,3.81-15.78,5.71-23.02,5.71
		c-25.19,0-38.37-10.42-39.52-31.27H562c-12.45,22.88-31.85,34.31-58.19,34.31c-40.54,0-60.8-21.86-60.8-65.58
		c0-24.03,5.06-41.69,15.2-52.98c7.53-8.39,20.55-15.2,39.09-20.41l36.48-9.99c9.56-2.61,16.21-5.65,19.98-9.12
		c4.92-4.34,7.38-11.29,7.38-20.85c0-23.16-10.71-34.74-32.14-34.74c-23.74,0-35.61,14.91-35.61,44.73h-44.3
		c0-25.77,5.93-44.73,17.81-56.89c13.03-13.31,34.45-19.98,64.27-19.98c22.29,0,39.81,4.36,52.55,13.05
		C598.19,930.85,605.43,945.65,605.43,965.38z M561.14,1063.41v-39.09c-4.63,3.77-13.18,7.82-25.62,12.16
		c-15.35,5.21-24.18,8.4-26.49,9.55c-12.74,6.08-19.11,18.67-19.11,37.78c0,10.42,2.46,18.67,7.38,24.75
		c5.21,6.95,12.45,10.42,21.71,10.42C547.09,1118.99,561.14,1100.47,561.14,1063.41z"/>
	<path d="M684.91,1147.66l-62.54-233.65h50.38l40.82,184.14h0.87l36.92-184.14h49.94l-61.67,233.65H684.91z"/>
	<path d="M809.11,1030.83c0-39.37,6.08-68.9,18.24-88.6c13.9-22.87,36.77-34.31,68.62-34.31c32.14,0,55.15,11.44,69.05,34.31
		c12.16,19.69,18.24,49.22,18.24,88.6c0,81.94-29.1,122.9-87.29,122.9C838.06,1153.74,809.11,1112.77,809.11,1030.83z
		 M856.02,1030.83c0,31.85,2.46,54,7.38,66.45c5.79,14.48,16.65,21.71,32.57,21.71c16.21,0,27.21-7.23,33.01-21.71
		c4.92-12.45,7.38-34.59,7.38-66.45c0-29.24-2.46-50.38-7.38-63.41c-6.08-16.5-17.09-24.75-33.01-24.75
		c-15.63,0-26.49,8.25-32.57,24.75C858.47,980.46,856.02,1001.6,856.02,1030.83z"/>
</g>
<rect x="125.88" y="770.95" style="fill:#ED1C2B;" width="391.88" height="20.12"/>
<rect x="199.88" y="723.3" style="fill:#ED1C2B;" width="341.88" height="20.12"/>
</svg>
